<svg width="32" height="32" viewBox="0 0 32 32" fill="none" xmlns="http://www.w3.org/2000/svg">
  <rect width="32" height="32" rx="6" fill="#0F1621"/>
  <path d="M8 12.5C8 11.1193 9.11929 10 10.5 10H13.5C14.8807 10 16 11.1193 16 12.5C16 13.8807 14.8807 15 13.5 15H11V17H13.5C14.8807 17 16 18.1193 16 19.5C16 20.8807 14.8807 22 13.5 22H10.5C9.11929 22 8 20.8807 8 19.5V12.5ZM11 12.5V13H13.5C13.7761 13 14 12.7761 14 12.5C14 12.2239 13.7761 12 13.5 12H11V12.5ZM11 19.5C11 19.7761 11.2239 20 11.5 20H13.5C13.7761 20 14 19.7761 14 19.5C14 19.2239 13.7761 19 13.5 19H11V19.5Z" fill="#7CFF4D"/>
  <path d="M18 10H21.5C22.8807 10 24 11.1193 24 12.5V15.5H22V12.5C22 12.2239 21.7761 12 21.5 12H20V20H21.5C21.7761 20 22 19.7761 22 19.5V16.5H24V19.5C24 20.8807 22.8807 22 21.5 22H18V10Z" fill="#7CFF4D"/>
  <circle cx="16" cy="25" r="2" fill="#7CFF4D" opacity="0.6"/>
</svg>