<?xml version="1.0" encoding="UTF-8" standalone="no"?>
<svg width="32" height="32" viewBox="0 0 32 32" version="1.1" xmlns="http://www.w3.org/2000/svg" style="fill-rule:evenodd;clip-rule:evenodd;stroke-linejoin:round;stroke-miterlimit:2;">
    <rect width="32" height="32" rx="6" fill="#0C1219"/>
    <g transform="matrix(0.0649351,0,0,0.0649351,-20.3896,-24.0649)">
        <path d="M519.434,370.227L640.929,490.95C659.494,509.397 659.494,539.35 640.93,557.797L519.434,678.521C500.869,696.968 470.725,696.968 452.16,678.521L330.665,557.797C312.1,539.351 312.1,509.398 330.665,490.951L452.161,370.227C470.725,351.78 500.869,351.78 519.434,370.227ZM567.268,504.018C565.667,502.437 563.074,502.445 561.482,504.036L543.916,521.603C542.324,523.195 542.332,525.771 543.934,527.353L561.612,544.807C563.214,546.389 565.807,546.38 567.398,544.789L584.965,527.222C586.557,525.63 586.548,523.054 584.947,521.473L567.268,504.018ZM409.982,503.73C408.486,502.254 406.066,502.262 404.58,503.747L386.63,521.698C385.144,523.184 385.152,525.588 386.647,527.065L404.711,544.9C406.207,546.377 408.627,546.369 410.113,544.883L428.063,526.933C429.549,525.447 429.541,523.042 428.046,521.566L409.982,503.73ZM527.924,464.633C526.32,463.049 523.723,463.057 522.129,464.651L426.082,560.698C424.488,562.292 424.496,564.872 426.101,566.456L443.77,583.902C445.374,585.486 447.971,585.477 449.565,583.883L545.612,487.836C547.206,486.242 547.198,483.662 545.593,482.078L527.924,464.633Z" fill="#82FF00"/>
    </g>
</svg>