<?xml version="1.0" encoding="UTF-8" standalone="no"?>
<!DOCTYPE svg PUBLIC "-//W3C//DTD SVG 1.1//EN" "http://www.w3.org/Graphics/SVG/1.1/DTD/svg11.dtd">
<svg width="100%" height="100%" viewBox="0 0 2000 2000" version="1.1" xmlns="http://www.w3.org/2000/svg" xmlns:xlink="http://www.w3.org/1999/xlink" xml:space="preserve" xmlns:serif="http://www.serif.com/" style="fill-rule:evenodd;clip-rule:evenodd;stroke-linejoin:round;stroke-miterlimit:2;">
    <g transform="matrix(5.55556,0,0,5.55556,-3700,-2000)">
        <g transform="matrix(6.12323e-17,-1,1,6.12323e-17,692.35,1042.13)">
            <path d="M502.113,374.51C575.545,374.51 635.161,434.12 635.161,507.542C635.161,580.964 575.545,640.573 502.113,640.573C428.682,640.573 369.065,580.964 369.065,507.542C369.065,434.12 428.682,374.51 502.113,374.51ZM574.412,495.336C574.397,493.081 572.555,491.251 570.301,491.251L434.47,491.251C432.216,491.251 430.397,493.081 430.412,495.336L430.57,520.166C430.584,522.42 432.426,524.25 434.681,524.25L570.511,524.25C572.766,524.25 574.584,522.42 574.57,520.166L574.412,495.336ZM574.383,551.006C574.368,548.755 572.529,546.928 570.278,546.928L545.435,546.928C543.184,546.928 541.368,548.755 541.383,551.006L541.541,575.849C541.555,578.1 543.394,579.927 545.645,579.927L570.488,579.927C572.739,579.927 574.555,578.1 574.541,575.849L574.383,551.006ZM463.368,439.584C463.354,437.483 461.638,435.777 459.536,435.777L434.15,435.777C432.049,435.777 430.354,437.483 430.368,439.584L430.529,464.969C430.543,467.07 432.26,468.776 434.361,468.776L459.747,468.776C461.848,468.776 463.543,467.07 463.529,464.969L463.368,439.584Z" style="fill:rgb(255,172,0);"/>
        </g>
    </g>
</svg>