<?xml version="1.0" encoding="UTF-8" standalone="no"?>
<svg width="64" height="64" viewBox="0 0 64 64" version="1.1" xmlns="http://www.w3.org/2000/svg">
  <g transform="translate(4,4)">
    <path d="M37.4,21.8L46.9,31.2C49.4,33.7 49.4,37.9 46.9,40.4L37.4,49.8C34.9,52.3 30.7,52.3 28.2,49.8L18.7,40.4C16.2,37.9 16.2,33.7 18.7,31.2L28.2,21.8C30.7,19.3 34.9,19.3 37.4,21.8ZM41.8,30.4C41.5,30.1 40.9,30.1 40.6,30.4L38.7,32.3C38.4,32.6 38.4,33.2 38.7,33.5L40.6,35.4C40.9,35.7 41.5,35.7 41.8,35.4L43.7,33.5C44.0,33.2 44.0,32.6 43.7,32.3L41.8,30.4ZM26.2,30.3C25.9,30.0 25.3,30.0 25.0,30.3L23.1,32.2C22.8,32.5 22.8,33.1 23.1,33.4L25.0,35.3C25.3,35.6 25.9,35.6 26.2,35.3L28.1,33.4C28.4,33.1 28.4,32.5 28.1,32.2L26.2,30.3ZM36.8,26.8C36.4,26.4 35.7,26.4 35.3,26.8L24.9,37.2C24.5,37.6 24.5,38.3 24.9,38.7L26.8,40.6C27.2,41.0 27.9,41.0 28.3,40.6L38.7,30.2C39.1,29.8 39.1,29.1 38.7,28.7L36.8,26.8Z" style="fill:#82FF00;"/>
  </g>
</svg>