<?xml version="1.0" encoding="UTF-8" standalone="no"?>
<!DOCTYPE svg PUBLIC "-//W3C//DTD SVG 1.1//EN" "http://www.w3.org/Graphics/SVG/1.1/DTD/svg11.dtd">
<svg width="100%" height="100%" viewBox="0 0 13334 6000" version="1.1" xmlns="http://www.w3.org/2000/svg" xmlns:xlink="http://www.w3.org/1999/xlink" xml:space="preserve" xmlns:serif="http://www.serif.com/" style="fill-rule:evenodd;clip-rule:evenodd;stroke-linejoin:round;stroke-miterlimit:2;">
    <g transform="matrix(5.55556,0,0,5.55556,0,0)">
        <g transform="matrix(1,0,0,1,16.5829,-16.5829)">
            <path d="M519.434,370.227L640.929,490.95C659.494,509.397 659.494,539.35 640.93,557.797L519.434,678.521C500.869,696.968 470.725,696.968 452.16,678.521L330.665,557.797C312.1,539.351 312.1,509.398 330.665,490.951L452.161,370.227C470.725,351.78 500.869,351.78 519.434,370.227ZM567.268,504.018C565.667,502.437 563.074,502.445 561.482,504.036L543.916,521.603C542.324,523.195 542.332,525.771 543.934,527.353L561.612,544.807C563.214,546.389 565.807,546.38 567.398,544.789L584.965,527.222C586.557,525.63 586.548,523.054 584.947,521.473L567.268,504.018ZM409.982,503.73C408.486,502.254 406.066,502.262 404.58,503.747L386.63,521.698C385.144,523.184 385.152,525.588 386.647,527.065L404.711,544.9C406.207,546.377 408.627,546.369 410.113,544.883L428.063,526.933C429.549,525.447 429.541,523.042 428.046,521.566L409.982,503.73ZM527.924,464.633C526.32,463.049 523.723,463.057 522.129,464.651L426.082,560.698C424.488,562.292 424.496,564.872 426.101,566.456L443.77,583.902C445.374,585.486 447.971,585.477 449.565,583.883L545.612,487.836C547.206,486.242 547.198,483.662 545.593,482.078L527.924,464.633Z" style="fill:rgb(130,255,0);"/>
        </g>
        <path d="M704.431,461.16C691.095,439.625 688.876,413.441 694.718,390.099C707.332,339.695 762.108,311.568 808.006,324.691C821.094,328.433 833.667,334.271 845.137,344.512C845.934,345.205 846.696,345.985 847.425,346.848C848.832,348.468 849.006,350.16 847.506,351.951L844.56,354.902L810.922,388.534L808.575,390.81C806.904,392.337 805.201,392.256 803.472,390.865L800.376,388.655C797.486,386.767 795.36,385.786 791.881,384.903C776.709,381.054 760.029,388.529 754.919,406.242C750.105,422.932 762.039,440.183 776.259,443.204C779.802,443.956 782.717,444.319 785.888,444.354C793.843,444.442 804.177,445.576 813.812,448.258C837.437,454.835 859.536,468.218 876.978,491.178C893.95,513.518 906.023,551.969 895.568,589.863C879.688,647.418 821.358,688.392 753.963,671.619C742.33,668.724 724.13,661.115 709.51,648.512C708.954,648.032 707.596,646.713 707.192,646.24C705.755,644.559 705.917,642.403 707.016,641.274C709.042,639.189 745.377,602.733 746.145,601.96C747.678,600.418 749.635,600.586 751.206,601.77C752.235,602.546 753.428,603.569 754.48,604.262C760.35,608.124 768.785,612.675 781.151,613.313C805.878,614.587 829.156,598.75 835.972,573.93C842.422,550.443 832.432,530.163 817.071,517.53C810.287,511.95 798.046,506.568 784.404,506.319C776.398,506.172 764.972,505.116 752.887,500.892C731.978,493.584 714.935,478.121 704.431,461.16Z" style="fill:rgb(130,255,0);"/>
        <path d="M980.116,452.967C980.137,455.883 982.24,456.674 984.326,455.667C1057.55,419.884 1149.74,470.661 1149.74,562.993L1149.74,671.89C1149.74,674.156 1148.01,675.904 1145.74,675.904L1091.24,675.904C1088.96,675.904 1087.24,674.17 1087.24,671.89L1087.24,562.993C1087.24,487.67 980.116,487.67 980.116,562.993L980.116,671.89C980.116,674.263 978.335,675.904 976.125,675.904L921.881,675.904C919.468,675.904 917.872,674.127 917.872,671.89L917.872,325.522L917.87,325.524C917.856,323.091 919.542,321.555 921.881,321.536L976.125,321.536L976.196,321.548C978.465,321.548 980.116,323.007 980.116,325.494L980.116,452.967Z" style="fill:rgb(130,255,0);"/>
        <path d="M1281.7,609.42C1279.82,611.304 1281,613.398 1283.66,613.332C1294.71,613.056 1306.25,609.963 1317.33,601.11C1318.9,599.857 1321.01,599.839 1322.43,601.259L1361.59,640.56C1362.84,641.812 1362.78,644.521 1361.43,645.661C1267.02,725.06 1143.94,634.296 1172.02,530.014C1197.78,434.331 1328.51,409.489 1384.31,503.025C1385.32,504.707 1384.86,506.371 1383.83,507.436C1366.73,525.168 1281.7,609.42 1281.7,609.42ZM1287.48,506.542C1272.09,505.338 1257.51,510.566 1246.62,520.93C1234.63,532.338 1228.43,548.268 1230.08,564.108C1230.49,568.081 1234.2,568.914 1237.02,566.09C1267.93,535.182 1282.47,520.645 1289.31,513.807C1292.25,510.861 1291.64,506.867 1287.48,506.542Z" style="fill:rgb(130,255,0);"/>
        <path d="M1499.91,675.218C1438.85,675.218 1385.12,623.622 1385.12,562.561C1385.12,496.792 1434.14,443.989 1499.91,443.989C1517.59,443.997 1534.35,447.659 1550.19,455.051C1552.52,456.138 1554.43,454.875 1554.43,452.247L1554.43,448.292C1554.43,445.828 1555.97,443.989 1558.44,443.989L1612.64,443.989C1615.17,443.989 1616.65,445.774 1616.65,448.302L1616.65,671.201C1616.65,673.606 1615.05,675.218 1612.65,675.218L1558.4,675.218C1556.1,675.218 1554.43,673.51 1554.43,671.203L1554.43,666.457C1554.43,664.268 1552.56,662.925 1550.7,663.777C1534.05,671.414 1517.17,675.285 1499.91,675.218ZM1500.5,506.008C1470.97,506.008 1447,529.977 1447,559.5C1447,589.023 1470.97,612.992 1500.5,612.992C1530.02,612.992 1553.99,589.023 1553.99,559.5C1553.99,529.977 1530.02,506.008 1500.5,506.008Z" style="fill:rgb(130,255,0);"/>
        <path d="M1714.36,670.849C1714.36,673.936 1713.03,675.218 1709.94,675.218L1655.7,675.218C1653.29,675.218 1651.7,673.606 1651.7,671.201L1651.7,448.302C1651.7,445.774 1653.18,443.989 1655.7,443.989L1709.91,443.989C1712.37,443.989 1713.91,445.828 1713.91,448.292L1713.91,452.247C1713.91,454.875 1715.83,456.138 1718.16,455.051C1732.56,448.326 1747.74,444.689 1763.67,444.08C1766.42,443.967 1767.85,445.556 1767.85,448.316L1767.85,501.955C1767.85,504.509 1766.21,505.912 1763.67,506.169C1736.1,508.305 1714.36,531.384 1714.36,559.5L1714.36,670.849Z" style="fill:rgb(130,255,0);"/>
        <path d="M1857.12,454.564C1873.27,447.333 1889.46,444.088 1905.69,443.909C1968.71,443.215 2020.96,496.423 2020.96,559.444L2020.96,671.216C2020.96,673.603 2019.36,675.215 2016.97,675.215L1963.19,675.215C1960.79,675.215 1959.29,673.616 1959.29,671.216L1959.29,559.444C1959.29,527.924 1937.21,502.935 1905.69,502.935C1873.52,502.935 1852.24,527.273 1852.19,559.444L1852.19,671.216C1852.19,673.65 1850.68,675.215 1848.24,675.215L1793.33,675.215C1790.97,675.215 1789.35,673.579 1789.35,671.216L1789.35,448.288C1789.35,445.846 1790.91,443.909 1793.35,443.909L1848.24,443.909C1850.65,443.909 1852.22,445.876 1852.19,448.288L1852.19,451.502C1852.19,454.18 1854.63,455.66 1857.12,454.564Z" style="fill:rgb(130,255,0);"/>
    </g>
</svg>
